<?xml version="1.0" encoding="UTF-8" standalone="no"?>
<svg
   xmlns:dc="http://purl.org/dc/elements/1.1/"
   xmlns:cc="http://creativecommons.org/ns#"
   xmlns:rdf="http://www.w3.org/1999/02/22-rdf-syntax-ns#"
   xmlns:svg="http://www.w3.org/2000/svg"
   xmlns="http://www.w3.org/2000/svg"
   xmlns:sodipodi="http://sodipodi.sourceforge.net/DTD/sodipodi-0.dtd"
   xmlns:inkscape="http://www.inkscape.org/namespaces/inkscape"
   width="21"
   height="19"
   viewBox="0 0 21 19"
   fill="black"
   version="1.1"
   id="svg881"
   sodipodi:docname="like_active.svg"
   inkscape:version="1.0.2 (e86c870879, 2021-01-15)">
  <metadata
     id="metadata887">
    <rdf:RDF>
      <cc:Work
         rdf:about="">
        <dc:format>image/svg+xml</dc:format>
        <dc:type
           rdf:resource="http://purl.org/dc/dcmitype/StillImage" />
        <dc:title></dc:title>
      </cc:Work>
    </rdf:RDF>
  </metadata>
  <defs
     id="defs885" />
  <sodipodi:namedview
     pagecolor="#ffffff"
     bordercolor="#666666"
     borderopacity="1"
     objecttolerance="10"
     gridtolerance="10"
     guidetolerance="10"
     inkscape:pageopacity="0"
     inkscape:pageshadow="2"
     inkscape:window-width="1920"
     inkscape:window-height="938"
     id="namedview883"
     showgrid="false"
     inkscape:zoom="39.315789"
     inkscape:cx="10.5"
     inkscape:cy="9.5"
     inkscape:window-x="0"
     inkscape:window-y="27"
     inkscape:window-maximized="1"
     inkscape:current-layer="svg881" />
  <path
     d="M19.3764 9.78586C21.5412 7.54338 21.5412 3.90213 19.3764 1.68186C17.2115 -0.560619 13.6964 -0.560619 11.5315 1.68186L10.4812 2.792L9.43098 1.70406C7.26614 -0.560619 3.75096 -0.560619 1.60755 1.68186C0.557285 2.76979 0 4.21297 0 5.74496C0 7.27695 0.578719 8.72013 1.60755 9.80806L10.4812 19L19.3764 9.78586ZM1.37178 5.74496C1.37178 4.59042 1.80046 3.52469 2.59352 2.72539C3.40801 1.88168 4.45828 1.45983 5.50855 1.45983C6.55882 1.45983 7.60909 1.88168 8.42358 2.72539L10.4812 4.83465L12.5389 2.70318C14.1465 1.03798 16.7829 1.03798 18.369 2.70318C19.1406 3.50248 19.5907 4.56821 19.5907 5.72276C19.5907 6.8773 19.162 7.94303 18.369 8.74233L10.4812 16.9351L2.59352 8.76453C1.82189 7.94303 1.37178 6.8773 1.37178 5.74496Z"
     fill="black"
     id="path879" />
  <path
     style="opacity:1;fill:#000000;fill-opacity:1;fill-rule:nonzero;stroke:#000000;stroke-width:0.144199;stroke-miterlimit:4;stroke-dasharray:none;stroke-dashoffset:10.0157;stroke-opacity:1"
     d="M 6.5702811,12.868901 C 4.4299197,10.651859 2.5952189,8.7436611 2.4931683,8.6284621 1.9952015,8.0663363 1.6372282,7.3544144 1.4656618,6.5850017 1.4166395,6.3651541 1.4094794,6.2577571 1.4090336,5.7356091 1.4085826,5.2073374 1.4152595,5.1068528 1.4664969,4.8708166 1.7501429,3.5641386 2.5906607,2.4683404 3.746988,1.8976995 5.0639878,1.2477676 6.5135492,1.3483743 7.7501763,2.1755407 8.0438235,2.3719579 8.2165841,2.536957 9.4635431,3.8119311 c 0.5490679,0.5614032 1.0048049,1.0238535 1.0127499,1.0276675 0.0079,0.00381 0.505836,-0.5038243 1.106425,-1.1280851 1.127499,-1.1719382 1.410589,-1.432645 1.818768,-1.6749613 0.419342,-0.2489435 0.893763,-0.4238094 1.397041,-0.5149317 0.366143,-0.066293 1.021486,-0.060099 1.392708,0.013162 0.795195,0.1569336 1.446282,0.4933679 2.022454,1.0450582 0.563284,0.5393487 0.930472,1.1207011 1.157833,1.8331445 0.274792,0.8610665 0.270931,1.8232379 -0.01077,2.6834002 -0.149958,0.457897 -0.445715,0.9916487 -0.754019,1.3607765 -0.165784,0.1984912 -8.103975,8.4448181 -8.128078,8.4435851 -0.0092,-4.73e-4 -1.7680144,-1.814804 -3.9083759,-4.031846 z"
     id="path889" />
</svg>
